# xmcd
#
# Track frame offsets:
#	150
#	2877
#	19267
#	25636
#	40802
#	54321
#
# Disc length: 1028 seconds
#
# Revision: 0
# Processed by: cddbd v1.5.2PL0 Copyright (c) Steve Scherf et al.
# Submitted via: audiograbber 1.83.01
#
DISCID=3c040206
DTITLE=Rainhard Fendrich - Meine Zeit Sonderedition
DYEAR=2011
DGENRE=Austropop
TTITLE0=Traurige Aktualität
TTITLE1=Tango Korrupti Live 2011
TTITLE2=Freunde auf Facebook
TTITLE3=My Tschenereischn Live 2011
TTITLE4=Göttin der großen Hofpause
TTITLE5=Frieda Live 2011
EXTD=
EXTT0=
EXTT1=
EXTT2=
EXTT3=
EXTT4=
EXTT5=
PLAYORDER=
